# xmcd
#
# Track frame offsets:
#	179
#	12332
#	24655
#	32067
#	39799
#	45317
#	55546
#	57164
#	69358
#	70678
#	79574
#	88102
#	98384
#	101158
#	110773
#	112657
#	125496
#	130274
#	139288
#	140701
#	148103
#	152410
#
# Disc length: 2154 seconds
# Revision: 1
# Processed by: cddbd v1.5.2PL0 Copyright (c) Steve Scherf et al.
# Submitted via: dBpowerAMP V12.0
#
DISCID=1f086816
DTITLE=Various Artist - Complete Columbia Album Collection, Disc 30 [Cash Family Christmas]
DYEAR=1972
DGENRE=Country
TTITLE0=Johnny Cash - Opening Dialogue
TTITLE1=Johnny Cash - King of Love
TTITLE2=Johnny Cash - Dialogue 2
TTITLE3=Johnny Cash - Jingle Bells
TTITLE4=Johnny Cash - Dialogue 3
TTITLE5=Johnny Cash - That Christmasy Feeling
TTITLE6=Johnny Cash - Dialogue 4
TTITLE7=Larry Butler - My Merry Christmas Song
TTITLE8=Johnny Cash - Dialogue 5
TTITLE9=Johnny Cash - Merry Christmas Mary
TTITLE10=Johnny Cash - Dialogue 6
TTITLE11=Johnny Cash - Christmas Time's a-Coming
TTITLE12=Johnny Cash - Dialogue 7
TTITLE13=Johnny Cash - Christmas With You
TTITLE14=Johnny Cash - Dialogue 8
TTITLE15=Johnny Cash - Christmas As I Knew It
TTITLE16=Johnny Cash - Dialogue 9
TTITLE17=Carl Perkins - When You're Twenty-One
TTITLE18=Johnny Cash - Dialogue 10
TTITLE19=Lew DeWitt - An Old Fashioned Tree
TTITLE20=Johnny Cash - Dialogue 11
TTITLE21=Johnny Cash - Silent Night
EXTD=
EXTT0=
EXTT1=
EXTT2=
EXTT3=
EXTT4=
EXTT5=
EXTT6=
EXTT7=
EXTT8=
EXTT9=
EXTT10=
EXTT11=
EXTT12=
EXTT13=
EXTT14=
EXTT15=
EXTT16=
EXTT17=
EXTT18=
EXTT19=
EXTT20=
EXTT21=
PLAYORDER=
